<svg xmlns="http://www.w3.org/2000/svg" viewBox="0 0 24 24"><path d="M3.842 1.923L9.019 8.29c.153.19.148.46-.014.644l-1.42 1.61a.457.457 0 0 1-.696-.017L1.79 3.734a.457.457 0 0 1 .015-.588l1.36-1.494c.184-.202.5-.19.677.025zM22.21 22.077l-5.177-6.367a.457.457 0 0 1 .014-.644l1.42-1.61a.457.457 0 0 1 .696.017l5.099 6.793c.15.2.144.478-.015.588l-1.36 1.494a.457.457 0 0 1-.677-.025z"/><path d="M14.842 8.29L2.79 22.077a.457.457 0 0 1-.677.025l-1.36-1.494a.457.457 0 0 1-.015-.588L20.21 1.923a.457.457 0 0 1 .677-.025l1.36 1.494c.16.11.166.388.015.588L9.019 15.71a.457.457 0 0 1-.696-.017l-1.42-1.61a.457.457 0 0 1 .014-.644z"/></svg>
