<svg xmlns="http://www.w3.org/2000/svg" viewBox="0 0 24 24"><path d="M12.09 13.119c-.936 1.932-2.217 4.548-2.853 5.728-.616 1.074-1.127.931-1.532.029-1.406-3.321-4.293-9.144-5.651-12.409-.251-.601-.441-.987-.619-1.139-.181-.15-.554-.24-1.122-.271C.103 5.033 0 4.982 0 4.898v-.455l.052-.045c.924-.005 5.401 0 5.401 0l.051.045v.434c0 .119-.075.176-.225.176l-.564.031c-.485.029-.727.164-.727.436 0 .135.053.33.166.601 1.082 2.646 4.818 10.521 4.818 10.521l.136.046 2.411-4.81-.482-1.067-1.658-3.264s-.318-.654-.428-.872c-.728-1.443-.712-1.518-1.447-1.617-.207-.023-.313-.05-.313-.149v-.468l.06-.045h4.292l.113.037v.451c0 .105-.076.15-.227.15l-.308.047c-.792.061-.661.381-.136 1.422l1.582 3.252 1.758-3.504c.293-.64.233-.801.111-.947-.07-.084-.305-.22-.812-.24l-.201-.021a.276.276 0 0 1-.146-.051.144.144 0 0 1-.064-.117v-.454l.05-.044c1.868-.014 4.16 0 4.16 0l.05.044v.454c0 .105-.067.176-.219.176-.766.052-.98.13-1.42.869-.222.406-.5.855-.831 1.469l-2.641 5.226-.024.086 2.813 6.328.116.052 4.501-10.965c.145-.386.164-.658.048-.828-.113-.171-.331-.288-.68-.301l-.502-.031c-.15 0-.226-.05-.226-.15v-.451l.053-.041H24v.492c0 .097-.101.148-.301.148-.799.03-1.199.298-1.596 1.176l-6.005 13.678c-.499 1.146-1.084 1.176-1.643-.03l-2.365-5.359z"/></svg>
